<svg xmlns="http://www.w3.org/2000/svg" xmlns:xlink="http://www.w3.org/1999/xlink" width="1460" height="824.98"><rect width="1460" height="824.98" rx="0" ry="0" class="a"/><svg height="824.98" viewBox="0 0 146 82.498" width="1460" xmlns="http://www.w3.org/2000/svg" xmlns:xlink="http://www.w3.org/1999/xlink"><style>@keyframes h{0%{transform:translateX(0)}2.2%{transform:translateX(-146px)}20.8%{transform:translateX(-292px)}27.7%{transform:translateX(-438px)}29.2%{transform:translateX(-584px)}30.8%{transform:translateX(-730px)}33.1%{transform:translateX(-876px)}40.4%{transform:translateX(-1022px)}44%{transform:translateX(-1168px)}47.2%{transform:translateX(-1314px)}57.5%{transform:translateX(-1460px)}to{transform:translateX(-1606px)}}.a{fill:#282d35}.c,.d,.e{white-space:pre}.c{fill:#a8cc8c;font-weight:700}.d,.e{fill:#b9c0cb}.e{fill:#71bef2;font-weight:700}</style><g font-family="Monaco,Consolas,Menlo,'Bitstream Vera Sans Mono','Powerline Symbols',monospace" font-size="1.67"><defs><symbol id="1"><text y="1.67" class="c">pi@raspberrypi</text><text x="14.028" y="1.67" class="d">:</text><text x="15.03" y="1.67" class="e">/tmp/work</text><text x="25.05" y="1.67" class="e">$</text></symbol><symbol id="2"><text y="1.67" class="c">pi@raspberrypi</text><text x="14.028" y="1.67" class="d">:</text><text x="15.03" y="1.67" class="e">/tmp/work</text><text x="25.05" y="1.67" class="e">$</text><text x="27.054" y="1.67" class="d">echo</text></symbol><symbol id="3"><text y="1.67" class="c">pi@raspberrypi</text><text x="14.028" y="1.67" class="d">:</text><text x="15.03" y="1.67" class="e">/tmp/work</text><text x="25.05" y="1.67" class="e">$</text><text x="27.054" y="1.67" class="d">echo</text><text x="32.064" y="1.67" class="d">&apos;A&apos;</text></symbol><symbol id="4"><text y="1.67" class="d">A</text></symbol><symbol id="a"><path fill="transparent" d="M0 0h146v38H0z"/></symbol><symbol id="b"><path fill="#6f7683" d="M0 0h1.102v2.171H0z"/></symbol></defs><path class="a" d="M0 0h146v82.498H0z"/><g style="animation-duration:4.464998s;animation-iteration-count:infinite;animation-name:h;animation-timing-function:steps(1,end)"><svg width="1752"><svg><use xlink:href="#a"/><use xlink:href="#b" x="-.004"/></svg><svg x="146"><use xlink:href="#a"/><use xlink:href="#b" x="26.996"/><use xlink:href="#1"/></svg><svg x="292"><use xlink:href="#a"/><use xlink:href="#b" x="27.996"/><text y="1.67" class="c">pi@raspberrypi</text><text x="14.028" y="1.67" class="d">:</text><text x="15.03" y="1.67" class="e">/tmp/work</text><text x="25.05" y="1.67" class="e">$</text><text x="27.054" y="1.67" class="d">e</text></svg><svg x="438"><use xlink:href="#a"/><use xlink:href="#b" x="28.996"/><text y="1.67" class="c">pi@raspberrypi</text><text x="14.028" y="1.67" class="d">:</text><text x="15.03" y="1.67" class="e">/tmp/work</text><text x="25.05" y="1.67" class="e">$</text><text x="27.054" y="1.67" class="d">ec</text></svg><svg x="584"><use xlink:href="#a"/><use xlink:href="#b" x="29.996"/><text y="1.67" class="c">pi@raspberrypi</text><text x="14.028" y="1.67" class="d">:</text><text x="15.03" y="1.67" class="e">/tmp/work</text><text x="25.05" y="1.67" class="e">$</text><text x="27.054" y="1.67" class="d">ech</text></svg><svg x="730"><use xlink:href="#a"/><use xlink:href="#b" x="30.996"/><use xlink:href="#2"/></svg><svg x="876"><use xlink:href="#a"/><use xlink:href="#b" x="31.996"/><use xlink:href="#2"/></svg><svg x="1022"><use xlink:href="#a"/><use xlink:href="#b" x="32.996"/><text y="1.67" class="c">pi@raspberrypi</text><text x="14.028" y="1.67" class="d">:</text><text x="15.03" y="1.67" class="e">/tmp/work</text><text x="25.05" y="1.67" class="e">$</text><text x="27.054" y="1.67" class="d">echo</text><text x="32.064" y="1.67" class="d">&apos;</text></svg><svg x="1168"><use xlink:href="#a"/><use xlink:href="#b" x="33.996"/><text y="1.67" class="c">pi@raspberrypi</text><text x="14.028" y="1.67" class="d">:</text><text x="15.03" y="1.67" class="e">/tmp/work</text><text x="25.05" y="1.67" class="e">$</text><text x="27.054" y="1.67" class="d">echo</text><text x="32.064" y="1.67" class="d">&apos;A</text></svg><svg x="1314"><use xlink:href="#a"/><use xlink:href="#b" x="34.996"/><use xlink:href="#3"/></svg><svg x="1460"><use xlink:href="#a"/><use xlink:href="#b" x="26.996" y="4.317"/><use xlink:href="#3"/><use xlink:href="#4" y="2.171"/><use xlink:href="#1" y="4.342"/></svg><svg x="1606"><use xlink:href="#a"/><use xlink:href="#b" x="-.004" y="6.488"/><use xlink:href="#3"/><use xlink:href="#4" y="2.171"/><text y="6.012" class="c">pi@raspberrypi</text><text x="14.028" y="6.012" class="d">:</text><text x="15.03" y="6.012" class="e">/tmp/work</text><text x="25.05" y="6.012" class="e">$</text><text x="27.054" y="6.012" class="d">exit</text></svg></svg></g></g></svg></svg>